{"accessors":[{"bufferView":0,"byteOffset":0,"componentType":5126,"count":51,"max":[1,0,1],"min":[-1,0,-1],"normalized":false,"type":"VEC3"},{"bufferView":1,"byteOffset":0,"componentType":5126,"count":51,"max":[1,0,-0.000015,1],"min":[1,0,-0.000015,1],"normalized":false,"type":"VEC4"},{"bufferView":2,"byteOffset":0,"componentType":5126,"count":51,"max":[0,1,-0.000015],"min":[0,1,-0.000015],"normalized":false,"type":"VEC3"},{"bufferView":3,"byteOffset":0,"componentType":5126,"count":51,"max":[1,1],"min":[0,0],"normalized":false,"type":"VEC2"},{"bufferView":4,"byteOffset":0,"componentType":5125,"count":192,"max":[50],"min":[0],"normalized":false,"type":"SCALAR"},{"bufferView":5,"byteOffset":0,"componentType":5126,"count":190,"max":[0.345692,0.345692,0],"min":[-0.345692,-0.345692,0],"normalized":false,"type":"VEC3"},{"bufferView":6,"byteOffset":0,"componentType":5126,"count":190,"max":[1,0,0.000015,1],"min":[1,-0.000015,-0.000015,1],"normalized":false,"type":"VEC4"},{"bufferView":7,"byteOffset":0,"componentType":5126,"count":190,"max":[-0.000015,-0.000015,1],"min":[-0.000015,-0.000015,1],"normalized":false,"type":"VEC3"},{"bufferView":8,"byteOffset":0,"componentType":5126,"count":190,"max":[1,1],"min":[0,0],"normalized":false,"type":"VEC2"},{"bufferView":9,"byteOffset":0,"componentType":5125,"count":192,"max":[189],"min":[0],"normalized":false,"type":"SCALAR"},{"bufferView":10,"byteOffset":0,"componentType":5126,"count":51,"max":[1,1,0],"min":[-1,-1,0],"normalized":false,"type":"VEC3"},{"bufferView":11,"byteOffset":0,"componentType":5126,"count":51,"max":[1,0,-0.000015,1],"min":[1,0,-0.000015,1],"normalized":false,"type":"VEC4"},{"bufferView":12,"byteOffset":0,"componentType":5126,"count":51,"max":[-0.000015,-0.000015,1],"min":[-0.000015,-0.000015,1],"normalized":false,"type":"VEC3"},{"bufferView":13,"byteOffset":0,"componentType":5126,"count":51,"max":[1,1],"min":[0,0],"normalized":false,"type":"VEC2"},{"bufferView":14,"byteOffset":0,"componentType":5125,"count":192,"max":[50],"min":[0],"normalized":false,"type":"SCALAR"},{"bufferView":15,"byteOffset":0,"componentType":5126,"count":860,"max":[1.716935,1.178529,1.229955],"min":[-1,-1.17853,-1.229955],"normalized":false,"type":"VEC3"},{"bufferView":16,"byteOffset":0,"componentType":5126,"count":860,"max":[1,0.063323,1,1],"min":[-1,-1,-1,-1],"normalized":false,"type":"VEC4"},{"bufferView":17,"byteOffset":0,"componentType":5126,"count":860,"max":[1,1,1],"min":[-1,-1,-1],"normalized":false,"type":"VEC3"},{"bufferView":18,"byteOffset":0,"componentType":5126,"count":860,"max":[1,1],"min":[0,0],"normalized":false,"type":"VEC2"},{"bufferView":19,"byteOffset":0,"componentType":5125,"count":3546,"max":[732],"min":[0],"normalized":false,"type":"SCALAR"},{"bufferView":20,"byteOffset":0,"componentType":5126,"count":51,"max":[1,1,0],"min":[-1,-1,0],"normalized":false,"type":"VEC3"},{"bufferView":21,"byteOffset":0,"componentType":5126,"count":51,"max":[1,0,-0.000015,1],"min":[1,0,-0.000015,1],"normalized":false,"type":"VEC4"},{"bufferView":22,"byteOffset":0,"componentType":5126,"count":51,"max":[-0.000015,-0.000015,1],"min":[-0.000015,-0.000015,1],"normalized":false,"type":"VEC3"},{"bufferView":23,"byteOffset":0,"componentType":5126,"count":51,"max":[1,1],"min":[0,0],"normalized":false,"type":"VEC2"},{"bufferView":24,"byteOffset":0,"componentType":5125,"count":192,"max":[50],"min":[0],"normalized":false,"type":"SCALAR"},{"bufferView":25,"byteOffset":0,"componentType":5126,"count":860,"max":[1.716935,1.178529,1.229955],"min":[-1,-1.17853,-1.229955],"normalized":false,"type":"VEC3"},{"bufferView":26,"byteOffset":0,"componentType":5126,"count":860,"max":[1,0.063323,1,1],"min":[-1,-1,-1,-1],"normalized":false,"type":"VEC4"},{"bufferView":27,"byteOffset":0,"componentType":5126,"count":860,"max":[1,1,1],"min":[-1,-1,-1],"normalized":false,"type":"VEC3"},{"bufferView":28,"byteOffset":0,"componentType":5126,"count":860,"max":[1,1],"min":[0,0],"normalized":false,"type":"VEC2"},{"bufferView":29,"byteOffset":0,"componentType":5125,"count":3546,"max":[732],"min":[0],"normalized":false,"type":"SCALAR"},{"bufferView":30,"byteOffset":0,"componentType":5126,"count":51,"max":[1,1,0],"min":[-1,-1,0],"normalized":false,"type":"VEC3"},{"bufferView":31,"byteOffset":0,"componentType":5126,"count":51,"max":[1,0,-0.000015,1],"min":[1,0,-0.000015,1],"normalized":false,"type":"VEC4"},{"bufferView":32,"byteOffset":0,"componentType":5126,"count":51,"max":[-0.000015,-0.000015,1],"min":[-0.000015,-0.000015,1],"normalized":false,"type":"VEC3"},{"bufferView":33,"byteOffset":0,"componentType":5126,"count":51,"max":[1,1],"min":[0,0],"normalized":false,"type":"VEC2"},{"bufferView":34,"byteOffset":0,"componentType":5125,"count":192,"max":[50],"min":[0],"normalized":false,"type":"SCALAR"},{"bufferView":35,"byteOffset":0,"componentType":5126,"count":458,"max":[0.084324,0,0.03357],"min":[-0.047061,-0.065574,-0.03357],"normalized":false,"type":"VEC3"},{"bufferView":36,"byteOffset":0,"componentType":5126,"count":458,"max":[1,0.967083,0.825599,1],"min":[-0.621265,-0.987408,-0.82551,-1],"normalized":false,"type":"VEC4"},{"bufferView":37,"byteOffset":0,"componentType":5126,"count":458,"max":[0.980545,0.810036,0.99273],"min":[-0.987408,-0.992499,-0.992438],"normalized":false,"type":"VEC3"},{"bufferView":38,"byteOffset":0,"componentType":5126,"count":458,"max":[0.99,0.99],"min":[0.01,0.51],"normalized":false,"type":"VEC2"},{"bufferView":39,"byteOffset":0,"componentType":5125,"count":1188,"max":[457],"min":[0],"normalized":false,"type":"SCALAR"},{"bufferView":40,"byteOffset":0,"componentType":5126,"count":51,"max":[1,1,0],"min":[-1,-1,0],"normalized":false,"type":"VEC3"},{"bufferView":41,"byteOffset":0,"componentType":5126,"count":51,"max":[1,0,-0.000015,1],"min":[1,0,-0.000015,1],"normalized":false,"type":"VEC4"},{"bufferView":42,"byteOffset":0,"componentType":5126,"count":51,"max":[-0.000015,-0.000015,1],"min":[-0.000015,-0.000015,1],"normalized":false,"type":"VEC3"},{"bufferView":43,"byteOffset":0,"componentType":5126,"count":51,"max":[1,1],"min":[0,0],"normalized":false,"type":"VEC2"},{"bufferView":44,"byteOffset":0,"componentType":5125,"count":192,"max":[50],"min":[0],"normalized":false,"type":"SCALAR"},{"bufferView":45,"byteOffset":0,"componentType":5126,"count":458,"max":[0.084324,0,0.03357],"min":[-0.047061,-0.065574,-0.03357],"normalized":false,"type":"VEC3"},{"bufferView":46,"byteOffset":0,"componentType":5126,"count":458,"max":[1,0.967083,0.825599,1],"min":[-0.621265,-0.987408,-0.82551,-1],"normalized":false,"type":"VEC4"},{"bufferView":47,"byteOffset":0,"componentType":5126,"count":458,"max":[0.980545,0.810036,0.99273],"min":[-0.987408,-0.992499,-0.992438],"normalized":false,"type":"VEC3"},{"bufferView":48,"byteOffset":0,"componentType":5126,"count":458,"max":[0.99,0.99],"min":[0.01,0.51],"normalized":false,"type":"VEC2"},{"bufferView":49,"byteOffset":0,"componentType":5125,"count":1188,"max":[457],"min":[0],"normalized":false,"type":"SCALAR"},{"bufferView":50,"byteOffset":0,"componentType":5126,"count":66,"max":[1,1,0],"min":[-1,-1,0],"normalized":false,"type":"VEC3"},{"bufferView":51,"byteOffset":0,"componentType":5126,"count":66,"max":[1,0,-0.000046,-1],"min":[1,0,-0.000046,-1],"normalized":false,"type":"VEC4"},{"bufferView":52,"byteOffset":0,"componentType":5126,"count":66,"max":[-0.000015,-0.000015,1],"min":[-0.000015,-0.000015,1],"normalized":false,"type":"VEC3"},{"bufferView":53,"byteOffset":0,"componentType":5126,"count":66,"max":[0,1],"min":[0,1],"normalized":false,"type":"VEC2"},{"bufferView":54,"byteOffset":0,"componentType":5125,"count":102,"max":[65],"min":[0],"normalized":false,"type":"SCALAR"}],"asset":{"generator":"Godot Engine v4.0.beta1.mono.official@4ba934bf3d1e697d8f332b5e8cfd694cdf49a7ba","version":"2.0"},"bufferViews":[{"buffer":0,"byteLength":612,"byteOffset":0},{"buffer":0,"byteLength":816,"byteOffset":612},{"buffer":0,"byteLength":612,"byteOffset":1428},{"buffer":0,"byteLength":408,"byteOffset":2040},{"buffer":0,"byteLength":768,"byteOffset":2448},{"buffer":0,"byteLength":2280,"byteOffset":3216},{"buffer":0,"byteLength":3040,"byteOffset":5496},{"buffer":0,"byteLength":2280,"byteOffset":8536},{"buffer":0,"byteLength":1520,"byteOffset":10816},{"buffer":0,"byteLength":768,"byteOffset":12336},{"buffer":0,"byteLength":612,"byteOffset":13104},{"buffer":0,"byteLength":816,"byteOffset":13716},{"buffer":0,"byteLength":612,"byteOffset":14532},{"buffer":0,"byteLength":408,"byteOffset":15144},{"buffer":0,"byteLength":768,"byteOffset":15552},{"buffer":0,"byteLength":10320,"byteOffset":16320},{"buffer":0,"byteLength":13760,"byteOffset":26640},{"buffer":0,"byteLength":10320,"byteOffset":40400},{"buffer":0,"byteLength":6880,"byteOffset":50720},{"buffer":0,"byteLength":14184,"byteOffset":57600},{"buffer":0,"byteLength":612,"byteOffset":71784},{"buffer":0,"byteLength":816,"byteOffset":72396},{"buffer":0,"byteLength":612,"byteOffset":73212},{"buffer":0,"byteLength":408,"byteOffset":73824},{"buffer":0,"byteLength":768,"byteOffset":74232},{"buffer":0,"byteLength":10320,"byteOffset":75000},{"buffer":0,"byteLength":13760,"byteOffset":85320},{"buffer":0,"byteLength":10320,"byteOffset":99080},{"buffer":0,"byteLength":6880,"byteOffset":109400},{"buffer":0,"byteLength":14184,"byteOffset":116280},{"buffer":0,"byteLength":612,"byteOffset":130464},{"buffer":0,"byteLength":816,"byteOffset":131076},{"buffer":0,"byteLength":612,"byteOffset":131892},{"buffer":0,"byteLength":408,"byteOffset":132504},{"buffer":0,"byteLength":768,"byteOffset":132912},{"buffer":0,"byteLength":5496,"byteOffset":133680},{"buffer":0,"byteLength":7328,"byteOffset":139176},{"buffer":0,"byteLength":5496,"byteOffset":146504},{"buffer":0,"byteLength":3664,"byteOffset":152000},{"buffer":0,"byteLength":4752,"byteOffset":155664},{"buffer":0,"byteLength":612,"byteOffset":160416},{"buffer":0,"byteLength":816,"byteOffset":161028},{"buffer":0,"byteLength":612,"byteOffset":161844},{"buffer":0,"byteLength":408,"byteOffset":162456},{"buffer":0,"byteLength":768,"byteOffset":162864},{"buffer":0,"byteLength":5496,"byteOffset":163632},{"buffer":0,"byteLength":7328,"byteOffset":169128},{"buffer":0,"byteLength":5496,"byteOffset":176456},{"buffer":0,"byteLength":3664,"byteOffset":181952},{"buffer":0,"byteLength":4752,"byteOffset":185616},{"buffer":0,"byteLength":792,"byteOffset":190368},{"buffer":0,"byteLength":1056,"byteOffset":191160},{"buffer":0,"byteLength":792,"byteOffset":192216},{"buffer":0,"byteLength":528,"byteOffset":193008},{"buffer":0,"byteLength":408,"byteOffset":193536}],"buffers":[{"byteLength":193944,"uri":"uberhero_base0.bin"}],"materials":[{"pbrMetallicRoughness":{"baseColorFactor":[0.99999988079071,0.99999988079071,0.99999988079071,1],"metallicFactor":0,"roughnessFactor":1}},{"pbrMetallicRoughness":{"baseColorFactor":[0.99999988079071,0.99999988079071,0.99999988079071,1],"metallicFactor":0,"roughnessFactor":1}},{"pbrMetallicRoughness":{"baseColorFactor":[0.99999988079071,0.99999988079071,0.99999988079071,1],"metallicFactor":0,"roughnessFactor":1}},{"pbrMetallicRoughness":{"baseColorFactor":[0,0,0,1],"metallicFactor":0,"roughnessFactor":1}},{"pbrMetallicRoughness":{"baseColorFactor":[0.99999988079071,0.99999988079071,0.99999988079071,1],"metallicFactor":0,"roughnessFactor":1}},{"pbrMetallicRoughness":{"baseColorFactor":[0.99999988079071,0.99999988079071,0.99999988079071,1],"metallicFactor":0,"roughnessFactor":1}},{"pbrMetallicRoughness":{"baseColorFactor":[0.99999988079071,0.99999988079071,0.99999988079071,1],"metallicFactor":0,"roughnessFactor":1}},{"doubleSided":true,"name":"Material","pbrMetallicRoughness":{"baseColorFactor":[0.799999892711639,0.799999892711639,0.799999892711639,1],"metallicFactor":0,"roughnessFactor":0.5}}],"meshes":[{"extras":{"targetNames":[]},"primitives":[{"attributes":{"NORMAL":2,"POSITION":0,"TANGENT":1,"TEXCOORD_0":3},"indices":4,"material":0,"mode":4}]},{"extras":{"targetNames":[]},"primitives":[{"attributes":{"NORMAL":7,"POSITION":5,"TANGENT":6,"TEXCOORD_0":8},"indices":9,"material":1,"mode":4}]},{"extras":{"targetNames":[]},"primitives":[{"attributes":{"NORMAL":12,"POSITION":10,"TANGENT":11,"TEXCOORD_0":13},"indices":14,"material":2,"mode":4}]},{"extras":{"targetNames":[]},"primitives":[{"attributes":{"NORMAL":17,"POSITION":15,"TANGENT":16,"TEXCOORD_0":18},"indices":19,"material":3,"mode":4}]},{"extras":{"targetNames":[]},"primitives":[{"attributes":{"NORMAL":22,"POSITION":20,"TANGENT":21,"TEXCOORD_0":23},"indices":24,"material":4,"mode":4}]},{"extras":{"targetNames":[]},"primitives":[{"attributes":{"NORMAL":27,"POSITION":25,"TANGENT":26,"TEXCOORD_0":28},"indices":29,"material":3,"mode":4}]},{"extras":{"targetNames":[]},"primitives":[{"attributes":{"NORMAL":32,"POSITION":30,"TANGENT":31,"TEXCOORD_0":33},"indices":34,"material":5,"mode":4}]},{"extras":{"targetNames":[]},"primitives":[{"attributes":{"NORMAL":37,"POSITION":35,"TANGENT":36,"TEXCOORD_0":38},"indices":39,"material":3,"mode":4}]},{"extras":{"targetNames":[]},"primitives":[{"attributes":{"NORMAL":42,"POSITION":40,"TANGENT":41,"TEXCOORD_0":43},"indices":44,"material":6,"mode":4}]},{"extras":{"targetNames":[]},"primitives":[{"attributes":{"NORMAL":47,"POSITION":45,"TANGENT":46,"TEXCOORD_0":48},"indices":49,"material":3,"mode":4}]},{"extras":{"targetNames":[]},"primitives":[{"attributes":{"NORMAL":52,"POSITION":50,"TANGENT":51,"TEXCOORD_0":53},"indices":54,"material":7,"mode":4}]}],"nodes":[{"children":[1,2,34],"extensions":{},"name":"uberhero_base"},{"extensions":{},"name":"VisibleOnScreenEnabler3d"},{"children":[3],"extensions":{},"name":"Visual"},{"children":[4,22,28],"extensions":{},"name":"Hips","translation":[0,0.418999999761581,0]},{"children":[5,6],"extensions":{},"name":"Spine","translation":[0,0.430999994277954,0]},{"extensions":{},"mesh":0,"name":"_body"},{"children":[7],"extensions":{},"name":"0!Base","translation":[0,-0.30000001192093,0]},{"children":[8,10,16],"extensions":{},"name":"1!Stomach","translation":[-0.00000000745058,0.150000005960464,0.00000000745058015283462]},{"children":[9],"extensions":{},"name":"2!Neck","translation":[0.00000000745057970874541,0.200001001358032,0.000000119209005333687]},{"extensions":{},"mesh":1,"name":"_eye","translation":[-0.00016439000319,0.277999997138977,0.0000000596073022052224]},{"children":[11],"extensions":{},"mesh":2,"name":"RightShoulder","translation":[0.129999995231628,0.090999998152256,0]},{"children":[12],"extensions":{},"name":"0!"},{"children":[13],"extensions":{},"name":"1!","translation":[0.200000002980232,0,0]},{"children":[14],"extensions":{},"name":"2!","translation":[0.25,0,-0.00000000046566]},{"children":[15],"extensions":{},"name":"Model_Hand","translation":[0.00800000037997961,0,0]},{"extensions":{},"mesh":3,"name":"Hand","rotation":[0,-0.70710676908493,0.70710676908493,-0.00000000702215],"scale":[0.0687545239925385,0.0687545239925385,0.0687545239925385]},{"children":[17],"extensions":{},"mesh":4,"name":"RightShoulder2","scale":[-1,-1,-1],"translation":[-0.12999999523163,0.090999998152256,0]},{"children":[18],"extensions":{},"name":"0!2"},{"children":[19],"extensions":{},"name":"1!2","translation":[0.200000002980232,0,0]},{"children":[20],"extensions":{},"name":"2!2","translation":[0.25,0,-0.00000000046566]},{"children":[21],"extensions":{},"name":"Model_Hand2","translation":[0.00800000037997961,0,0]},{"extensions":{},"mesh":5,"name":"Hand2","rotation":[0,-0.70710676908493,0.70710676908493,-0.00000000702215],"scale":[0.0687545239925385,0.0687545239925385,0.0687545239925385]},{"children":[23,24,25],"extensions":{},"mesh":6,"name":"LeftLeg","rotation":[1,0,-0,0.0000000437113882867379],"scale":[-1,-1,-1],"translation":[-0.05000000074506,0.0610000006854534,0]},{"extensions":{},"name":"0!3"},{"extensions":{},"name":"1!3","translation":[0,-0.15000000596046,0]},{"children":[26],"extensions":{},"name":"2!3","rotation":[0,-0.70710676908493,0,0.70710676908493],"translation":[0,-0.30000001192093,0]},{"children":[27],"extensions":{},"name":"Model_Foot","translation":[0,-0.18099999427795,0]},{"extensions":{},"mesh":7,"name":"Foot001","rotation":[0,0.707106828689575,0,0.707106709480286],"scale":[2.99999976158142,3,2.99999976158142],"translation":[0,0.196709483861923,0]},{"children":[29,30,31],"extensions":{},"mesh":8,"name":"RightLeg","translation":[0.0500000007450581,0.0610000006854534,0]},{"extensions":{},"name":"0!4"},{"extensions":{},"name":"1!4","translation":[0,-0.15000000596046,0]},{"children":[32],"extensions":{},"name":"2!4","rotation":[0,-0.70710676908493,0,0.70710676908493],"translation":[0,-0.30000001192093,0]},{"children":[33],"extensions":{},"name":"Model_Foot2","translation":[0,-0.18099999427795,0]},{"extensions":{},"mesh":9,"name":"Foot0012","rotation":[0,0.707106828689575,0,0.707106709480286],"scale":[2.99999976158142,3,2.99999976158142],"translation":[0,0.196709483861923,0]},{"children":[35],"extensions":{},"name":"line","translation":[1.3302755355835,1.42513608932495,1951.25732421875]},{"extensions":{},"mesh":10,"name":"Cube","translation":[-0.30983316898346,-0.44109213352203,0]}],"scene":0,"scenes":[{"nodes":[0]}]}